<mxfile host="Electron" modified="2024-03-22T14:00:27.763Z" agent="Mozilla/5.0 (Windows NT 10.0; Win64; x64) AppleWebKit/537.36 (KHTML, like Gecko) draw.io/21.6.1 Chrome/112.0.5615.204 Electron/24.6.1 Safari/537.36" etag="kbLYO2TUuP65DQVY9TpH" version="21.6.1" type="device">
  <diagram name="Seite-1" id="8sp0QfZafjZ8n7yRoukL">
    <mxGraphModel dx="602" dy="396" grid="1" gridSize="10" guides="1" tooltips="1" connect="1" arrows="1" fold="1" page="1" pageScale="1" pageWidth="827" pageHeight="1169" math="0" shadow="0">
      <root>
        <mxCell id="0" />
        <mxCell id="1" parent="0" />
        <mxCell id="7ykelU502jPRCdQPp45f-1" value="VIN" style="rounded=0;whiteSpace=wrap;html=1;fillColor=#ff9e9e;" vertex="1" parent="1">
          <mxGeometry x="80" y="40" width="40" height="40" as="geometry" />
        </mxCell>
        <mxCell id="7ykelU502jPRCdQPp45f-2" value="3.3V" style="rounded=0;whiteSpace=wrap;html=1;fillColor=#FFDDBA;" vertex="1" parent="1">
          <mxGeometry x="120" y="40" width="40" height="40" as="geometry" />
        </mxCell>
        <mxCell id="7ykelU502jPRCdQPp45f-3" value="LED1" style="rounded=0;whiteSpace=wrap;html=1;fillColor=#E3FAFF;" vertex="1" parent="1">
          <mxGeometry x="80" y="80" width="40" height="40" as="geometry" />
        </mxCell>
        <mxCell id="7ykelU502jPRCdQPp45f-4" value="LED2" style="rounded=0;whiteSpace=wrap;html=1;fillColor=#E3FAFF;" vertex="1" parent="1">
          <mxGeometry x="80" y="120" width="40" height="40" as="geometry" />
        </mxCell>
        <mxCell id="7ykelU502jPRCdQPp45f-5" value="LED3" style="rounded=0;whiteSpace=wrap;html=1;fillColor=#E3FAFF;" vertex="1" parent="1">
          <mxGeometry x="80" y="160" width="40" height="40" as="geometry" />
        </mxCell>
        <mxCell id="7ykelU502jPRCdQPp45f-6" value="LED4" style="rounded=0;whiteSpace=wrap;html=1;fillColor=#E3FAFF;" vertex="1" parent="1">
          <mxGeometry x="80" y="200" width="40" height="40" as="geometry" />
        </mxCell>
        <mxCell id="7ykelU502jPRCdQPp45f-7" value="LED5" style="rounded=0;whiteSpace=wrap;html=1;fillColor=#E3FAFF;" vertex="1" parent="1">
          <mxGeometry x="80" y="240" width="40" height="40" as="geometry" />
        </mxCell>
        <mxCell id="7ykelU502jPRCdQPp45f-8" value="LED6" style="rounded=0;whiteSpace=wrap;html=1;fillColor=#E3FAFF;" vertex="1" parent="1">
          <mxGeometry x="80" y="280" width="40" height="40" as="geometry" />
        </mxCell>
        <mxCell id="7ykelU502jPRCdQPp45f-9" value="VIN" style="rounded=0;whiteSpace=wrap;html=1;fillColor=#ff9e9e;" vertex="1" parent="1">
          <mxGeometry x="80" y="320" width="40" height="40" as="geometry" />
        </mxCell>
        <mxCell id="7ykelU502jPRCdQPp45f-10" value="VIN" style="rounded=0;whiteSpace=wrap;html=1;fillColor=#ff9e9e;" vertex="1" parent="1">
          <mxGeometry x="120" y="200" width="40" height="40" as="geometry" />
        </mxCell>
        <mxCell id="7ykelU502jPRCdQPp45f-11" value="VIN" style="rounded=0;whiteSpace=wrap;html=1;fillColor=#ff9e9e;" vertex="1" parent="1">
          <mxGeometry x="120" y="280" width="40" height="40" as="geometry" />
        </mxCell>
        <mxCell id="7ykelU502jPRCdQPp45f-12" value="GPIO2" style="rounded=0;whiteSpace=wrap;html=1;fillColor=#FFF2CC;" vertex="1" parent="1">
          <mxGeometry x="120" y="80" width="40" height="40" as="geometry" />
        </mxCell>
        <mxCell id="7ykelU502jPRCdQPp45f-13" value="GND" style="rounded=0;whiteSpace=wrap;html=1;fillColor=#BFBFBF;" vertex="1" parent="1">
          <mxGeometry x="120" y="120" width="40" height="40" as="geometry" />
        </mxCell>
        <mxCell id="7ykelU502jPRCdQPp45f-14" value="GPIO3" style="rounded=0;whiteSpace=wrap;html=1;fillColor=#FFF2CC;" vertex="1" parent="1">
          <mxGeometry x="120" y="160" width="40" height="40" as="geometry" />
        </mxCell>
        <mxCell id="7ykelU502jPRCdQPp45f-15" value="LED7" style="rounded=0;whiteSpace=wrap;html=1;fillColor=#E3FAFF;" vertex="1" parent="1">
          <mxGeometry x="120" y="240" width="40" height="40" as="geometry" />
        </mxCell>
        <mxCell id="7ykelU502jPRCdQPp45f-16" value="LED8" style="rounded=0;whiteSpace=wrap;html=1;fillColor=#E3FAFF;" vertex="1" parent="1">
          <mxGeometry x="120" y="320" width="40" height="40" as="geometry" />
        </mxCell>
        <mxCell id="7ykelU502jPRCdQPp45f-42" style="edgeStyle=orthogonalEdgeStyle;shape=connector;rounded=0;orthogonalLoop=1;jettySize=auto;html=1;exitX=0;exitY=0.5;exitDx=0;exitDy=0;entryX=1;entryY=0.5;entryDx=0;entryDy=0;labelBackgroundColor=default;strokeColor=default;fontFamily=Helvetica;fontSize=11;fontColor=default;endArrow=none;endFill=0;" edge="1" parent="1" source="7ykelU502jPRCdQPp45f-19" target="7ykelU502jPRCdQPp45f-12">
          <mxGeometry relative="1" as="geometry" />
        </mxCell>
        <mxCell id="7ykelU502jPRCdQPp45f-19" value="GPIO2" style="rounded=1;whiteSpace=wrap;html=1;" vertex="1" parent="1">
          <mxGeometry x="180" y="90" width="50" height="20" as="geometry" />
        </mxCell>
        <mxCell id="7ykelU502jPRCdQPp45f-41" style="edgeStyle=orthogonalEdgeStyle;shape=connector;rounded=0;orthogonalLoop=1;jettySize=auto;html=1;exitX=0;exitY=0.5;exitDx=0;exitDy=0;entryX=1;entryY=0.5;entryDx=0;entryDy=0;labelBackgroundColor=default;strokeColor=default;fontFamily=Helvetica;fontSize=11;fontColor=default;endArrow=none;endFill=0;" edge="1" parent="1" source="7ykelU502jPRCdQPp45f-20" target="7ykelU502jPRCdQPp45f-14">
          <mxGeometry relative="1" as="geometry" />
        </mxCell>
        <mxCell id="7ykelU502jPRCdQPp45f-20" value="GPIO3" style="rounded=1;whiteSpace=wrap;html=1;" vertex="1" parent="1">
          <mxGeometry x="180" y="170" width="50" height="20" as="geometry" />
        </mxCell>
        <mxCell id="7ykelU502jPRCdQPp45f-39" style="edgeStyle=orthogonalEdgeStyle;shape=connector;rounded=0;orthogonalLoop=1;jettySize=auto;html=1;exitX=0;exitY=0.5;exitDx=0;exitDy=0;entryX=1;entryY=0.5;entryDx=0;entryDy=0;labelBackgroundColor=default;strokeColor=default;fontFamily=Helvetica;fontSize=11;fontColor=default;endArrow=none;endFill=0;" edge="1" parent="1" source="7ykelU502jPRCdQPp45f-21" target="7ykelU502jPRCdQPp45f-15">
          <mxGeometry relative="1" as="geometry" />
        </mxCell>
        <mxCell id="7ykelU502jPRCdQPp45f-21" value="GPIO4" style="rounded=1;whiteSpace=wrap;html=1;" vertex="1" parent="1">
          <mxGeometry x="180" y="250" width="50" height="20" as="geometry" />
        </mxCell>
        <mxCell id="7ykelU502jPRCdQPp45f-40" style="edgeStyle=orthogonalEdgeStyle;shape=connector;rounded=0;orthogonalLoop=1;jettySize=auto;html=1;exitX=0;exitY=0.5;exitDx=0;exitDy=0;entryX=1;entryY=0.5;entryDx=0;entryDy=0;labelBackgroundColor=default;strokeColor=default;fontFamily=Helvetica;fontSize=11;fontColor=default;endArrow=none;endFill=0;" edge="1" parent="1" source="7ykelU502jPRCdQPp45f-22" target="7ykelU502jPRCdQPp45f-16">
          <mxGeometry relative="1" as="geometry" />
        </mxCell>
        <mxCell id="7ykelU502jPRCdQPp45f-22" value="GPIO0" style="rounded=1;whiteSpace=wrap;html=1;" vertex="1" parent="1">
          <mxGeometry x="180" y="330" width="50" height="20" as="geometry" />
        </mxCell>
        <mxCell id="7ykelU502jPRCdQPp45f-30" style="edgeStyle=orthogonalEdgeStyle;rounded=0;orthogonalLoop=1;jettySize=auto;html=1;exitX=1;exitY=0.5;exitDx=0;exitDy=0;entryX=0;entryY=0.5;entryDx=0;entryDy=0;endArrow=none;endFill=0;" edge="1" parent="1" source="7ykelU502jPRCdQPp45f-24" target="7ykelU502jPRCdQPp45f-3">
          <mxGeometry relative="1" as="geometry" />
        </mxCell>
        <mxCell id="7ykelU502jPRCdQPp45f-24" value="GPIO8" style="rounded=1;whiteSpace=wrap;html=1;" vertex="1" parent="1">
          <mxGeometry x="10" y="90" width="50" height="20" as="geometry" />
        </mxCell>
        <mxCell id="7ykelU502jPRCdQPp45f-32" style="edgeStyle=orthogonalEdgeStyle;shape=connector;rounded=0;orthogonalLoop=1;jettySize=auto;html=1;exitX=1;exitY=0.5;exitDx=0;exitDy=0;entryX=0;entryY=0.5;entryDx=0;entryDy=0;labelBackgroundColor=default;strokeColor=default;fontFamily=Helvetica;fontSize=11;fontColor=default;endArrow=none;endFill=0;" edge="1" parent="1" source="7ykelU502jPRCdQPp45f-25" target="7ykelU502jPRCdQPp45f-4">
          <mxGeometry relative="1" as="geometry" />
        </mxCell>
        <mxCell id="7ykelU502jPRCdQPp45f-25" value="GPIO7" style="rounded=1;whiteSpace=wrap;html=1;" vertex="1" parent="1">
          <mxGeometry x="10" y="130" width="50" height="20" as="geometry" />
        </mxCell>
        <mxCell id="7ykelU502jPRCdQPp45f-34" style="edgeStyle=orthogonalEdgeStyle;shape=connector;rounded=0;orthogonalLoop=1;jettySize=auto;html=1;exitX=1;exitY=0.5;exitDx=0;exitDy=0;entryX=0;entryY=0.5;entryDx=0;entryDy=0;labelBackgroundColor=default;strokeColor=default;fontFamily=Helvetica;fontSize=11;fontColor=default;endArrow=none;endFill=0;" edge="1" parent="1" source="7ykelU502jPRCdQPp45f-26" target="7ykelU502jPRCdQPp45f-5">
          <mxGeometry relative="1" as="geometry" />
        </mxCell>
        <mxCell id="7ykelU502jPRCdQPp45f-26" value="GPIO6" style="rounded=1;whiteSpace=wrap;html=1;" vertex="1" parent="1">
          <mxGeometry x="10" y="170" width="50" height="20" as="geometry" />
        </mxCell>
        <mxCell id="7ykelU502jPRCdQPp45f-35" style="edgeStyle=orthogonalEdgeStyle;shape=connector;rounded=0;orthogonalLoop=1;jettySize=auto;html=1;exitX=1;exitY=0.5;exitDx=0;exitDy=0;entryX=0;entryY=0.5;entryDx=0;entryDy=0;labelBackgroundColor=default;strokeColor=default;fontFamily=Helvetica;fontSize=11;fontColor=default;endArrow=none;endFill=0;" edge="1" parent="1" source="7ykelU502jPRCdQPp45f-27" target="7ykelU502jPRCdQPp45f-6">
          <mxGeometry relative="1" as="geometry" />
        </mxCell>
        <mxCell id="7ykelU502jPRCdQPp45f-27" value="GPIO5" style="rounded=1;whiteSpace=wrap;html=1;" vertex="1" parent="1">
          <mxGeometry x="10" y="210" width="50" height="20" as="geometry" />
        </mxCell>
        <mxCell id="7ykelU502jPRCdQPp45f-38" style="edgeStyle=orthogonalEdgeStyle;shape=connector;rounded=0;orthogonalLoop=1;jettySize=auto;html=1;exitX=1;exitY=0.5;exitDx=0;exitDy=0;entryX=-0.039;entryY=0.5;entryDx=0;entryDy=0;entryPerimeter=0;labelBackgroundColor=default;strokeColor=default;fontFamily=Helvetica;fontSize=11;fontColor=default;endArrow=none;endFill=0;" edge="1" parent="1" source="7ykelU502jPRCdQPp45f-28" target="7ykelU502jPRCdQPp45f-7">
          <mxGeometry relative="1" as="geometry" />
        </mxCell>
        <mxCell id="7ykelU502jPRCdQPp45f-28" value="GPIO10" style="rounded=1;whiteSpace=wrap;html=1;" vertex="1" parent="1">
          <mxGeometry x="10" y="250" width="50" height="20" as="geometry" />
        </mxCell>
        <mxCell id="7ykelU502jPRCdQPp45f-37" style="edgeStyle=orthogonalEdgeStyle;shape=connector;rounded=0;orthogonalLoop=1;jettySize=auto;html=1;exitX=1;exitY=0.5;exitDx=0;exitDy=0;entryX=0;entryY=0.5;entryDx=0;entryDy=0;labelBackgroundColor=default;strokeColor=default;fontFamily=Helvetica;fontSize=11;fontColor=default;endArrow=none;endFill=0;" edge="1" parent="1" source="7ykelU502jPRCdQPp45f-29" target="7ykelU502jPRCdQPp45f-8">
          <mxGeometry relative="1" as="geometry" />
        </mxCell>
        <mxCell id="7ykelU502jPRCdQPp45f-29" value="GPIO1" style="rounded=1;whiteSpace=wrap;html=1;" vertex="1" parent="1">
          <mxGeometry x="10" y="290" width="50" height="20" as="geometry" />
        </mxCell>
        <mxCell id="7ykelU502jPRCdQPp45f-48" style="edgeStyle=orthogonalEdgeStyle;shape=connector;rounded=0;orthogonalLoop=1;jettySize=auto;html=1;exitX=1;exitY=0.5;exitDx=0;exitDy=0;entryX=0;entryY=0.5;entryDx=0;entryDy=0;labelBackgroundColor=default;strokeColor=default;fontFamily=Helvetica;fontSize=11;fontColor=default;endArrow=none;endFill=0;" edge="1" parent="1" source="7ykelU502jPRCdQPp45f-49" target="7ykelU502jPRCdQPp45f-50">
          <mxGeometry relative="1" as="geometry" />
        </mxCell>
        <mxCell id="7ykelU502jPRCdQPp45f-49" value="GPIO9" style="rounded=1;whiteSpace=wrap;html=1;" vertex="1" parent="1">
          <mxGeometry x="60" y="370" width="50" height="20" as="geometry" />
        </mxCell>
        <mxCell id="7ykelU502jPRCdQPp45f-50" value="LED" style="rounded=1;whiteSpace=wrap;html=1;" vertex="1" parent="1">
          <mxGeometry x="130" y="370" width="50" height="20" as="geometry" />
        </mxCell>
      </root>
    </mxGraphModel>
  </diagram>
</mxfile>
